<svg width="33" height="23" viewBox="0 0 33 23" fill="none" xmlns="http://www.w3.org/2000/svg">
<path d="M31.409 3.52134C31.2278 2.84037 30.8704 2.21885 30.3725 1.71902C29.8748 1.21919 29.2541 0.85859 28.5726 0.67334C26.0717 -1.78814e-07 16.04 0 16.04 0C16.04 0 6.00831 -1.78814e-07 3.50607 0.67334C2.82492 0.85892 2.20456 1.21965 1.70703 1.71944C1.2095 2.21924 0.852247 2.84059 0.671006 3.52134C0 6.03334 0 11.2733 0 11.2733C0 11.2733 0 16.5133 0.671006 19.0253C0.85224 19.7063 1.20965 20.3278 1.70745 20.8276C2.20524 21.3274 2.82595 21.688 3.50742 21.8733C6.00831 22.5466 16.04 22.5466 16.04 22.5466C16.04 22.5466 26.0717 22.5466 28.574 21.8733C29.2555 21.6882 29.8762 21.3276 30.374 20.8278C30.8719 20.3279 31.2292 19.7063 31.4103 19.0253C32.08 16.5133 32.08 11.2733 32.08 11.2733C32.08 11.2733 32.08 6.03334 31.409 3.52134ZM12.7585 16.0306V6.51604L21.1434 11.2733L12.7585 16.0306Z" fill="#F70101"/>
</svg>
