<svg width="33" height="32" viewBox="0 0 33 32" fill="none" xmlns="http://www.w3.org/2000/svg">
<path d="M16.04 0C11.6824 0 11.1385 0.02 9.42751 0.096C7.71925 0.176 6.55635 0.444 5.5338 0.84C4.47917 1.248 3.58361 1.796 2.69204 2.68533C1.80049 3.57467 1.24979 4.46667 0.8421 5.52C0.44511 6.54 0.175104 7.7 0.09624 9.404C0.01604 11.1107 0 11.6533 0 16C0 20.3467 0.02005 20.8893 0.09624 22.596C0.17644 24.2987 0.44511 25.46 0.8421 26.48C1.25112 27.5307 1.80049 28.4253 2.69204 29.3147C3.58361 30.2027 4.47784 30.7533 5.5338 31.16C6.55768 31.5547 7.72058 31.8253 9.42751 31.904C11.1385 31.984 11.6824 32 16.04 32C20.3976 32 20.9415 31.98 22.6525 31.904C24.3594 31.824 25.5237 31.5547 26.5462 31.16C27.5995 30.752 28.4964 30.2027 29.388 29.3147C30.2782 28.4253 30.8302 27.5347 31.2379 26.48C31.6336 25.46 31.9049 24.2987 31.9838 22.596C32.064 20.8893 32.08 20.3467 32.08 16C32.08 11.6533 32.06 11.1107 31.9838 9.404C31.9036 7.70133 31.6336 6.53867 31.2379 5.52C30.8289 4.468 30.2782 3.57467 29.388 2.68533C28.4964 1.796 27.6035 1.24667 26.5462 0.84C25.5237 0.444 24.3594 0.174667 22.6525 0.096C20.9415 0.016 20.3976 0 16.04 0ZM16.04 2.88C20.3214 2.88 20.832 2.90133 22.5229 2.97467C24.0868 3.048 24.9355 3.30667 25.4996 3.528C26.2508 3.81733 26.7828 4.164 27.3469 4.72267C27.9069 5.28267 28.2545 5.81467 28.5445 6.564C28.7637 7.12667 29.0257 7.97333 29.0966 9.53333C29.1728 11.2213 29.1901 11.728 29.1901 16C29.1901 20.272 29.17 20.78 29.0912 22.4667C29.0096 24.0267 28.749 24.8733 28.5284 25.436C28.2291 26.1853 27.8882 26.716 27.3268 27.2787C26.7668 27.8373 26.2254 28.184 25.4822 28.4733C24.9208 28.692 24.0587 28.9533 22.4948 29.024C20.7919 29.1 20.2906 29.1173 15.9999 29.1173C11.7079 29.1173 11.2066 29.0973 9.50503 29.0187C7.9398 28.9373 7.07765 28.6773 6.51625 28.4573C5.75568 28.1587 5.23305 27.8187 4.67298 27.2587C4.11025 26.7 3.75068 26.16 3.46998 25.4187C3.24943 24.8587 2.99013 23.9987 2.90858 22.4387C2.84843 20.7587 2.82705 20.24 2.82705 15.98C2.82705 11.7187 2.84843 11.1987 2.90858 9.49867C2.99013 7.93867 3.24943 7.08 3.46998 6.52C3.75068 5.76 4.11025 5.24 4.67298 4.67867C5.23305 4.12 5.75568 3.76 6.51625 3.48133C7.07765 3.26 7.92108 3 9.48498 2.92C11.1892 2.86 11.6905 2.84 15.9799 2.84L16.04 2.88ZM16.04 7.784C11.4887 7.784 7.80346 11.464 7.80346 16C7.80346 20.54 11.4927 24.216 16.04 24.216C20.5914 24.216 24.2765 20.536 24.2765 16C24.2765 11.46 20.5873 7.784 16.04 7.784ZM16.04 21.3333C13.0859 21.3333 10.6934 18.9467 10.6934 16C10.6934 13.0533 13.0859 10.6667 16.04 10.6667C18.9941 10.6667 21.3866 13.0533 21.3866 16C21.3866 18.9467 18.9941 21.3333 16.04 21.3333ZM26.5275 7.46C26.5275 8.52 25.664 9.38 24.6027 9.38C23.54 9.38 22.6779 8.51867 22.6779 7.46C22.6779 6.40133 23.5414 5.54133 24.6027 5.54133C25.6627 5.54 26.5275 6.40133 26.5275 7.46Z" fill="url(#paint0_linear_343_140)"/>
<defs>
<linearGradient id="paint0_linear_343_140" x1="16.04" y1="0" x2="16.04" y2="32" gradientUnits="userSpaceOnUse">
<stop stop-color="#F701C2"/>
<stop offset="0.490385" stop-color="#D2CB01"/>
<stop offset="1" stop-color="#912701"/>
</linearGradient>
</defs>
</svg>
